<?xml version="1.0" encoding="UTF-8"?>
<svg xmlns="http://www.w3.org/2000/svg" xmlns:xlink="http://www.w3.org/1999/xlink" width="16px" height="12px" viewBox="0 0 16 12" version="1.1">
<g id="surface1">
<rect x="0" y="0" width="16" height="12" style="fill:rgb(14.117648%,29.019609%,64.705884%);fill-opacity:1;stroke:none;"/>
<path style=" stroke:none;fill-rule:nonzero;fill:rgb(81.568629%,65.098041%,31.37255%);fill-opacity:1;" d="M 8.085938 3.800781 C 8.152344 3.882812 8.199219 3.964844 8.199219 4.066406 C 8.140625 4.09375 8.0625 4.109375 8.019531 4.160156 C 8.296875 4.117188 8.355469 4.457031 8.667969 4.328125 C 8.679688 4.378906 8.722656 4.417969 8.777344 4.398438 L 8.8125 4.308594 C 8.933594 4.273438 8.902344 4.480469 9.035156 4.441406 C 9.101562 4.5 9.058594 4.597656 9.101562 4.671875 C 9.101562 4.75 9.136719 4.820312 9.167969 4.890625 C 9.203125 4.851562 9.226562 4.792969 9.304688 4.8125 C 9.359375 4.875 9.402344 4.933594 9.414062 5.003906 C 9.390625 5.140625 9.359375 5.253906 9.492188 5.324219 L 9.492188 5.367188 C 9.582031 5.410156 9.78125 5.324219 9.78125 5.488281 C 9.773438 5.550781 9.839844 5.496094 9.863281 5.53125 C 9.917969 5.507812 9.996094 5.519531 10.0625 5.519531 C 10.117188 5.644531 9.996094 5.730469 9.960938 5.84375 C 10.015625 5.898438 9.996094 6.007812 9.984375 6.074219 L 9.949219 6.09375 C 10.039062 6.109375 10.152344 6.082031 10.230469 6.136719 L 10.375 6.191406 C 10.441406 6.152344 10.519531 6.144531 10.609375 6.152344 C 10.675781 6.207031 10.585938 6.292969 10.640625 6.332031 C 10.722656 6.332031 10.789062 6.347656 10.796875 6.417969 L 10.808594 6.4375 C 10.867188 6.332031 11.023438 6.402344 11.089844 6.328125 C 11.199219 6.328125 11.222656 6.457031 11.277344 6.527344 C 11.300781 6.710938 11.089844 6.792969 11.15625 6.972656 C 11.109375 7.058594 11.023438 7.128906 10.953125 7.214844 C 10.976562 7.226562 10.964844 7.253906 10.964844 7.269531 C 10.898438 7.3125 10.953125 7.4375 10.867188 7.445312 C 10.855469 7.523438 10.722656 7.492188 10.765625 7.578125 C 10.855469 7.699219 10.722656 7.773438 10.722656 7.886719 C 10.664062 7.953125 10.554688 7.828125 10.554688 7.953125 C 10.484375 7.96875 10.417969 7.886719 10.375 7.957031 C 10.351562 8.039062 10.417969 8.066406 10.40625 8.152344 C 10.519531 8.136719 10.554688 8.253906 10.597656 8.324219 L 10.710938 8.445312 C 10.597656 8.535156 10.453125 8.429688 10.320312 8.484375 C 10.285156 8.464844 10.320312 8.421875 10.285156 8.402344 C 10.25 8.359375 10.183594 8.359375 10.128906 8.351562 C 10.140625 8.402344 10.039062 8.421875 10.085938 8.484375 C 10.085938 8.5 10.105469 8.554688 10.0625 8.554688 C 9.972656 8.582031 9.984375 8.472656 9.90625 8.515625 C 9.804688 8.554688 9.882812 8.710938 9.738281 8.695312 C 9.761719 8.835938 9.515625 8.929688 9.683594 9.050781 C 9.703125 9.074219 9.695312 9.121094 9.695312 9.15625 C 9.59375 9.253906 9.414062 9.21875 9.304688 9.183594 C 9.214844 9.15625 9.269531 9.039062 9.234375 8.976562 C 9.203125 8.917969 9.101562 8.878906 9.101562 8.792969 C 9.035156 8.765625 8.980469 8.746094 8.933594 8.6875 C 8.777344 8.847656 8.589844 9 8.367188 9.003906 C 8.265625 9.058594 8.207031 9.269531 8.054688 9.183594 C 7.992188 9.289062 7.808594 9.183594 7.796875 9.332031 C 7.722656 9.363281 7.757812 9.464844 7.710938 9.507812 C 7.695312 9.625 7.710938 9.726562 7.808594 9.796875 C 7.847656 9.882812 7.722656 9.882812 7.773438 9.96875 C 7.785156 9.996094 7.773438 10.039062 7.757812 10.050781 C 7.722656 10.066406 7.710938 10.085938 7.722656 10.121094 C 7.695312 10.121094 7.683594 10.136719 7.664062 10.160156 C 7.632812 10.21875 7.546875 10.25 7.484375 10.289062 C 7.421875 10.304688 7.378906 10.261719 7.339844 10.21875 C 7.328125 10.285156 7.277344 10.316406 7.214844 10.316406 C 7.125 10.316406 7.144531 10.234375 7.078125 10.199219 C 7.105469 10.09375 7.015625 10.050781 7.042969 9.953125 C 7.117188 9.898438 7.238281 9.855469 7.203125 9.730469 C 7.125 9.632812 7.15625 9.484375 7.078125 9.367188 C 7.027344 9.324219 6.941406 9.253906 6.96875 9.140625 C 7.042969 9.054688 6.96875 8.949219 6.929688 8.855469 C 6.914062 8.777344 6.871094 8.707031 6.871094 8.621094 C 6.746094 8.542969 6.742188 8.34375 6.570312 8.324219 C 6.445312 8.324219 6.421875 8.164062 6.300781 8.171875 C 6.289062 8.152344 6.261719 8.132812 6.238281 8.109375 C 6.148438 8.171875 6.039062 8.09375 5.925781 8.121094 C 5.855469 7.992188 5.988281 7.816406 5.792969 7.738281 L 5.792969 7.660156 C 5.816406 7.667969 5.828125 7.648438 5.832031 7.632812 C 5.84375 7.546875 5.691406 7.535156 5.753906 7.4375 C 5.71875 7.40625 5.679688 7.394531 5.703125 7.335938 C 5.621094 7.15625 5.367188 7.171875 5.3125 6.988281 C 5.359375 6.949219 5.359375 6.90625 5.375 6.871094 C 5.335938 6.800781 5.324219 6.726562 5.335938 6.652344 C 5.375 6.640625 5.398438 6.585938 5.417969 6.542969 C 5.367188 6.507812 5.308594 6.457031 5.25 6.472656 C 5.152344 6.457031 5.078125 6.375 4.988281 6.328125 C 4.96875 6.304688 4.976562 6.261719 4.976562 6.234375 C 5.101562 6.191406 4.960938 6.011719 5.113281 6.035156 C 5.152344 5.984375 5.234375 5.964844 5.296875 5.921875 C 5.359375 5.914062 5.40625 5.9375 5.46875 5.953125 C 5.519531 6.023438 5.609375 5.992188 5.660156 6.050781 C 5.710938 6.039062 5.769531 6.011719 5.832031 6.039062 C 5.832031 5.941406 5.875 5.882812 5.945312 5.8125 C 5.953125 5.773438 6.015625 5.742188 6.066406 5.71875 C 6.160156 5.742188 6.273438 5.742188 6.339844 5.671875 C 6.382812 5.703125 6.421875 5.644531 6.472656 5.644531 C 6.535156 5.628906 6.585938 5.648438 6.628906 5.679688 C 6.636719 5.558594 6.832031 5.660156 6.871094 5.519531 C 6.914062 5.425781 6.746094 5.390625 6.757812 5.308594 C 6.730469 5.214844 6.796875 5.167969 6.832031 5.105469 C 6.871094 5.085938 6.914062 5.0625 6.964844 5.074219 C 7.09375 5.027344 6.992188 4.75 7.199219 4.851562 C 7.199219 4.882812 7.1875 4.917969 7.203125 4.921875 C 7.277344 4.921875 7.289062 4.835938 7.339844 4.804688 C 7.359375 4.722656 7.3125 4.621094 7.378906 4.558594 C 7.410156 4.550781 7.4375 4.542969 7.460938 4.511719 C 7.460938 4.449219 7.429688 4.414062 7.378906 4.371094 C 7.359375 4.398438 7.316406 4.378906 7.289062 4.386719 C 7.289062 4.316406 7.25 4.273438 7.238281 4.207031 C 7.203125 4.1875 7.1875 4.160156 7.199219 4.117188 C 7.25 4.066406 7.199219 3.9375 7.316406 3.964844 C 7.359375 3.925781 7.4375 3.953125 7.484375 3.882812 C 7.601562 3.816406 7.757812 3.816406 7.847656 3.683594 C 7.886719 3.691406 7.929688 3.652344 7.96875 3.683594 C 7.980469 3.761719 8.085938 3.730469 8.085938 3.800781 "/>
<path style=" stroke:none;fill-rule:nonzero;fill:rgb(100%,100%,100%);fill-opacity:1;" d="M 8.949219 2.214844 L 8.796875 1.714844 L 8.644531 2.214844 L 8.144531 2.214844 L 8.546875 2.523438 L 8.394531 3.019531 L 8.796875 2.710938 L 9.199219 3.019531 L 9.046875 2.523438 L 9.449219 2.214844 Z M 8.949219 2.214844 "/>
<path style=" stroke:none;fill-rule:nonzero;fill:rgb(100%,100%,100%);fill-opacity:1;" d="M 10.519531 2.503906 L 10.367188 2.007812 L 10.214844 2.503906 L 9.714844 2.503906 L 10.117188 2.8125 L 9.964844 3.308594 L 10.367188 3.003906 L 10.769531 3.308594 L 10.617188 2.8125 L 11.019531 2.503906 Z M 10.519531 2.503906 "/>
<path style=" stroke:none;fill-rule:nonzero;fill:rgb(100%,100%,100%);fill-opacity:1;" d="M 12.015625 3.074219 L 11.863281 2.578125 L 11.710938 3.074219 L 11.210938 3.074219 L 11.617188 3.382812 L 11.460938 3.882812 L 11.863281 3.574219 L 12.265625 3.882812 L 12.113281 3.382812 L 12.515625 3.074219 Z M 12.015625 3.074219 "/>
<path style=" stroke:none;fill-rule:nonzero;fill:rgb(100%,100%,100%);fill-opacity:1;" d="M 7.355469 2.214844 L 7.203125 1.714844 L 7.050781 2.214844 L 6.550781 2.214844 L 6.953125 2.523438 L 6.800781 3.019531 L 7.203125 2.710938 L 7.605469 3.019531 L 7.453125 2.523438 L 7.855469 2.214844 Z M 7.355469 2.214844 "/>
<path style=" stroke:none;fill-rule:nonzero;fill:rgb(100%,100%,100%);fill-opacity:1;" d="M 5.785156 2.503906 L 5.632812 2.007812 L 5.480469 2.503906 L 4.980469 2.503906 L 5.382812 2.8125 L 5.230469 3.308594 L 5.632812 3.003906 L 6.035156 3.308594 L 5.882812 2.8125 L 6.285156 2.503906 Z M 5.785156 2.503906 "/>
<path style=" stroke:none;fill-rule:nonzero;fill:rgb(100%,100%,100%);fill-opacity:1;" d="M 4.289062 3.074219 L 4.136719 2.578125 L 3.984375 3.074219 L 3.484375 3.074219 L 3.886719 3.382812 L 3.734375 3.882812 L 4.136719 3.574219 L 4.539062 3.882812 L 4.382812 3.382812 L 4.789062 3.074219 Z M 4.289062 3.074219 "/>
</g>
</svg>
